<?xml version="1.0" encoding="utf-8"?>

<!-- License Agreement at http://iconmonstr.com/license/ -->

<!DOCTYPE svg PUBLIC "-//W3C//DTD SVG 1.1//EN" "http://www.w3.org/Graphics/SVG/1.1/DTD/svg11.dtd">
<svg version="1.1" xmlns="http://www.w3.org/2000/svg" xmlns:xlink="http://www.w3.org/1999/xlink" x="0px" y="0px"
	 width="512px" height="512px" viewBox="0 0 512 512" enable-background="new 0 0 512 512" xml:space="preserve">
<path id="instagram-7-icon" d="M336.919,235.073h23.674v115.05c0,5.77-4.685,10.448-10.47,10.448H161.878
	c-5.784,0-10.468-4.679-10.468-10.448v-115.05h23.674c-1.725,6.695-2.747,13.69-2.747,20.921c0,46.216,37.458,83.671,83.663,83.671
	c46.206,0,83.662-37.455,83.662-83.671C339.662,248.764,338.645,241.769,336.919,235.073z M256,308.293
	c28.881,0,52.297-23.42,52.297-52.299c0-28.882-23.416-52.286-52.297-52.286c-28.883,0-52.294,23.404-52.294,52.286
	C203.706,284.873,227.117,308.293,256,308.293z M350.123,151.411h-31.368c-5.778,0-10.458,4.684-10.458,10.459v31.379
	c0,5.771,4.68,10.459,10.458,10.459h31.368c5.785,0,10.47-4.688,10.47-10.459V161.87
	C360.593,156.095,355.908,151.411,350.123,151.411z M462,50v412H50V50H462z M391.96,151.411c0-17.328-14.042-31.371-31.367-31.371
	H151.41c-17.322,0-31.37,14.043-31.37,31.371v209.16c0,17.338,14.048,31.389,31.37,31.389h209.183
	c17.325,0,31.367-14.051,31.367-31.389V151.411z"/>
</svg>
